<!DOCTYPE svg PUBLIC "-//W3C//DTD SVG 20010904//EN" "http://www.w3.org/TR/2001/REC-SVG-20010904/DTD/svg10.dtd">
<svg version="1.0" xmlns="http://www.w3.org/2000/svg" width="1700px" height="1061px" viewBox="0 0 12000 7490" preserveAspectRatio="xMidYMid meet">
<g id="layer101" fill="#7250d8" stroke="none">
 <path d="M0 3745 l0 -3745 6000 0 6000 0 0 3745 0 3745 -6000 0 -6000 0 0 -3745z"/>
 </g>
<g id="layer102" fill="#8f74df" stroke="none">
 <path d="M4780 7486 c0 -3 145 -52 185 -62 6 -2 37 -12 70 -24 205 -74 274 -100 300 -111 17 -6 44 -17 60 -24 17 -7 71 -27 120 -45 97 -34 181 -66 285 -107 99 -39 114 -45 131 -53 9 -5 130 -55 270 -113 140 -58 268 -112 284 -120 17 -8 53 -25 80 -37 28 -13 77 -35 110 -50 33 -15 83 -37 110 -50 326 -147 816 -390 1078 -536 53 -30 102 -54 107 -54 6 0 10 -4 10 -8 0 -4 12 -13 28 -19 35 -15 111 -58 350 -199 226 -133 210 -123 319 -191 45 -29 85 -53 88 -53 3 0 18 -8 33 -19 15 -10 77 -51 137 -90 61 -39 117 -75 125 -81 8 -5 62 -42 120 -80 145 -98 139 -94 290 -199 74 -52 137 -97 140 -101 3 -4 19 -16 35 -26 31 -19 146 -104 155 -114 3 -4 43 -34 90 -69 89 -65 148 -111 215 -166 22 -19 59 -49 82 -67 107 -85 189 -153 203 -168 8 -8 40 -36 70 -60 30 -25 69 -58 85 -75 17 -16 69 -63 115 -104 126 -109 497 -479 619 -616 58 -66 108 -122 112 -125 5 -4 98 -114 136 -160 72 -88 300 -390 329 -435 10 -16 22 -34 27 -40 4 -5 23 -35 42 -65 19 -30 38 -60 43 -65 4 -6 14 -19 20 -30 17 -29 12 2015 -5 2065 -7 19 -15 51 -18 70 -3 19 -10 51 -15 70 -4 19 -13 58 -19 85 -5 28 -22 100 -36 160 -14 61 -28 119 -31 130 -28 118 -105 399 -158 575 -72 242 -231 693 -287 817 -10 23 -19 45 -19 48 0 22 -185 431 -290 640 l-75 150 -3128 3 c-1720 1 -3127 0 -3127 -2z"/>
 </g>
<g id="layer103" fill="#a28be5" stroke="none">
 <path d="M4825 7475 c17 -7 53 -20 80 -29 69 -21 268 -90 280 -97 6 -3 30 -12 55 -19 25 -7 50 -17 55 -21 6 -4 33 -15 60 -24 28 -9 64 -23 80 -30 17 -7 46 -18 65 -25 19 -7 44 -16 55 -20 31 -12 89 -34 225 -86 117 -44 212 -84 252 -105 10 -5 22 -9 28 -9 5 0 35 -12 67 -26 32 -14 67 -30 78 -34 11 -5 36 -15 55 -23 19 -8 61 -26 93 -41 32 -14 61 -26 65 -26 5 0 30 -11 58 -24 60 -29 176 -83 224 -103 19 -9 67 -30 105 -48 39 -18 93 -43 120 -55 78 -34 204 -95 405 -196 349 -175 508 -259 718 -378 35 -20 65 -36 67 -36 2 0 49 -27 105 -60 56 -33 104 -60 107 -60 3 0 17 -8 31 -19 15 -10 47 -29 72 -43 49 -28 276 -167 405 -248 44 -28 105 -66 135 -85 30 -19 60 -38 65 -42 6 -4 64 -44 130 -87 174 -115 553 -383 575 -406 3 -3 28 -22 57 -42 28 -20 60 -44 70 -52 28 -24 182 -143 243 -188 30 -23 62 -49 70 -58 8 -8 35 -31 60 -50 25 -19 47 -37 50 -40 3 -4 35 -31 71 -61 261 -215 628 -565 891 -849 145 -156 229 -257 397 -470 28 -36 64 -81 79 -100 29 -35 122 -168 154 -218 9 -15 21 -31 25 -37 5 -5 27 -39 48 -74 l40 -65 3 300 2 299 -31 105 c-82 281 -279 798 -370 970 -10 19 -47 96 -83 170 -92 189 -187 362 -316 580 -149 248 -282 450 -468 708 -23 32 -100 133 -116 153 -7 8 -32 42 -56 75 -24 32 -46 61 -50 64 -3 3 -21 25 -39 50 -19 25 -41 52 -50 60 -9 8 -41 47 -72 85 -31 39 -65 79 -76 90 -10 11 -50 56 -87 100 -166 193 -679 688 -869 838 -34 26 -63 51 -67 55 -3 4 -39 33 -81 65 l-76 57 -2149 -1 c-1808 0 -2144 -2 -2119 -14z"/>
 </g>

</svg>